# xmcd
#
# Track frame offsets:
#	150
#	18347
#	40647
#	57964
#	74527
#	93140
#	109740
#	124177
#	140758
#	156872
#	177699
#	198971
#	215593
#	231539
#	242869
#
# Disc length: 3461 seconds
#
# Revision: 2
# Processed by: cddbd v1.5.2PL0 Copyright (c) Steve Scherf et al.
# Submitted via: EasyCDDAExtractor 15.3.0.1
#
DISCID=de0d830f
DTITLE=Thalia - Habitame Siempre
DYEAR=2012
DGENRE=Latin
TTITLE0=Habitame Siempre
TTITLE1=Con Los Años Que Me Quedan (Featuring Leonel Garcia, Jesus Navarro (Re
TTITLE1=ik) Y Samo (Camila))
TTITLE2=Manias
TTITLE3=Te Perdiste Mi Amor (Featuring Prince Royce)
TTITLE4=No Soy El Aire
TTITLE5=Besame Mucho (Featuring Michael Buble)
TTITLE6=Regalito De Dios
TTITLE7=Tomame O Dejame
TTITLE8=Muñequita Linda (Te Quiero, Dijiste) (Featuring Robbie Williams)
TTITLE9=Besame
TTITLE10=Dime Si Ahora (Featuring Gilberto Santa Rosa)
TTITLE11=Ojala
TTITLE12=La Apuesta (Featuring Erik Rubin)
TTITLE13=Hoy Ten Miedo De Mi
TTITLE14=Atmosfera
EXTD=
EXTT0=
EXTT1=
EXTT2=
EXTT3=
EXTT4=
EXTT5=
EXTT6=
EXTT7=
EXTT8=
EXTT9=
EXTT10=
EXTT11=
EXTT12=
EXTT13=
EXTT14=
PLAYORDER=
